<?xml version="1.0" encoding="UTF-8" standalone="no"?>
<!DOCTYPE svg PUBLIC "-//W3C//DTD SVG 1.1//EN" "http://www.w3.org/Graphics/SVG/1.1/DTD/svg11.dtd">
<svg version="1.1" xmlns="http://www.w3.org/2000/svg" xmlns:xlink="http://www.w3.org/1999/xlink" preserveAspectRatio="xMidYMid meet" viewBox="0 0 640 640" width="640" height="640"><defs><path d="M161.58 438.05L20.22 438.05L20.22 543.81L619.78 543.81L619.78 438.05L477.81 438.05" id="l35HpZcdEe"></path><path d="M550.98 502.87C550.2 502.72 549.43 502.49 548.7 502.19C547.97 501.88 547.26 501.5 546.6 501.07C545.93 500.61 545.31 500.1 544.75 499.54C544.18 498.98 543.68 498.36 543.23 497.69C542.79 497.03 542.41 496.33 542.11 495.59C541.8 494.85 541.57 494.08 541.41 493.31C541.25 492.52 541.18 491.72 541.18 490.93C541.18 490.13 541.25 489.33 541.41 488.55C541.57 487.77 541.8 487 542.11 486.27C542.41 485.53 542.79 484.82 543.23 484.16C543.67 483.49 544.18 482.87 544.74 482.31C545.3 481.75 545.93 481.24 546.59 480.8C547.26 480.36 547.97 479.98 548.7 479.68C549.43 479.37 550.2 479.14 550.98 478.98C552.55 478.66 554.17 478.66 555.74 478.98C556.52 479.14 557.29 479.37 558.02 479.68C558.76 479.98 559.46 480.36 560.13 480.8C560.79 481.24 561.42 481.75 561.98 482.31C562.55 482.87 563.05 483.49 563.49 484.16C563.94 484.82 564.31 485.53 564.62 486.27C564.92 487 565.15 487.77 565.31 488.55C565.47 489.33 565.55 490.13 565.55 490.93C565.55 491.72 565.47 492.52 565.31 493.31C565.15 494.08 564.92 494.85 564.62 495.59C564.31 496.33 563.94 497.03 563.49 497.69C563.05 498.36 562.55 498.98 561.98 499.54C561.42 500.1 560.79 500.61 560.13 501.07C559.46 501.5 558.76 501.88 558.02 502.19C557.29 502.49 556.52 502.72 555.74 502.87C554.95 503.03 554.16 503.11 553.35 503.11C552.56 503.11 551.77 503.03 550.98 502.87Z" id="f1qIijJRp"></path><path d="M320 189.55L176.4 295.04L176.4 490.93L463.61 490.93L463.6 295.04L320 189.55Z" id="a9iBBEtdB"></path><path d="M280.19 393.86L359.81 393.86L359.81 490.93L280.19 490.93L280.19 393.86Z" id="a1NnbHrYA"></path><path d="M486.66 311.97L320 189.55L153.34 311.97L153.34 245.25L320 122.82L486.66 245.25L486.66 311.97Z" id="caP3puS5g"></path><path d="M176.4 295.04L153.34 311.97L153.34 245.25L233.6 186.29L198.58 160.56L54.98 266.06L54.99 438.05L176.4 438.05L176.4 295.04Z" id="h6M20LU2R"></path><path d="M233.6 186.29L279.02 152.92L198.58 93.84L31.93 216.26L31.93 282.99L198.58 160.56L233.6 186.29Z" id="bKjCYdmCK"></path><path d="M441.42 93.84L360.98 152.92L406.4 186.29L441.42 160.56L608.07 282.99L608.07 216.26L441.42 93.84Z" id="h7DA2ZZVs"></path><path d="M486.66 245.25L486.66 311.97L463.6 295.04L463.61 438.05L585.02 438.05L585.02 266.06L441.42 160.56L406.4 186.29L486.66 245.25Z" id="c4GaAFhpqm"></path><path d="M597.2 425.86L597.2 290.13C599.4 291.74 600.61 292.63 600.86 292.81C602.99 294.38 605.52 295.18 608.07 295.18C609.95 295.18 611.84 294.74 613.58 293.86C617.67 291.79 620.26 287.58 620.26 282.99C620.26 276.32 620.26 222.93 620.26 216.26C620.26 212.38 618.41 208.73 615.28 206.43C598.62 194.19 465.3 96.25 448.63 84.01C444.34 80.86 438.49 80.86 434.2 84.01C429.32 87.6 404.91 105.53 360.98 137.8C340.72 122.92 329.47 114.65 327.22 113C322.92 109.84 317.08 109.84 312.78 113C310.53 114.65 299.28 122.92 279.02 137.8C235.09 105.53 210.68 87.6 205.8 84.01C201.51 80.86 195.66 80.86 191.37 84.01C174.7 96.25 41.38 194.2 24.71 206.44C21.59 208.73 19.74 212.38 19.74 216.26C19.74 222.93 19.74 276.32 19.74 282.99C19.74 287.58 22.33 291.79 26.42 293.86C28.16 294.74 30.05 295.18 31.93 295.18C34.47 295.18 37.01 294.38 39.14 292.81C39.38 292.64 40.6 291.74 42.8 290.13L42.8 425.86C29.25 425.86 21.72 425.86 20.22 425.86C13.49 425.86 8.03 431.31 8.03 438.05C8.03 448.62 8.03 533.24 8.03 543.81C8.03 550.54 13.49 556 20.22 556C80.17 556 559.83 556 619.78 556C626.51 556 631.97 550.54 631.97 543.81C631.97 533.24 631.97 448.62 631.97 438.05C631.97 431.31 626.51 425.86 619.78 425.86C616.77 425.86 609.25 425.86 597.2 425.86ZM572.83 272.23L572.84 425.86L475.79 425.86L475.79 319.11C477.98 320.73 479.2 321.62 479.45 321.8C479.51 321.85 479.57 321.89 479.63 321.94C479.65 321.95 479.67 321.96 479.69 321.98C479.74 322.01 479.78 322.04 479.83 322.07C479.85 322.09 479.87 322.1 479.9 322.12C479.94 322.14 479.97 322.17 480.02 322.19C480.04 322.21 480.07 322.23 480.1 322.25C480.14 322.28 480.18 322.3 480.22 322.33C480.24 322.34 480.26 322.36 480.29 322.37C480.33 322.39 480.38 322.42 480.43 322.45C480.44 322.46 480.47 322.48 480.49 322.49C480.54 322.52 480.6 322.55 480.65 322.59C480.66 322.59 480.68 322.6 480.69 322.6C480.83 322.68 480.96 322.76 481.11 322.83C481.12 322.83 481.12 322.83 481.13 322.84C481.19 322.87 481.25 322.9 481.31 322.93C481.33 322.94 481.34 322.95 481.36 322.95C481.41 322.98 481.47 323 481.53 323.03C481.54 323.04 481.55 323.04 481.57 323.05C481.63 323.08 481.69 323.1 481.74 323.13C481.76 323.14 481.77 323.14 481.78 323.15C484.58 324.37 487.75 324.5 490.66 323.49C490.67 323.48 490.67 323.48 490.67 323.48C490.88 323.41 491.08 323.33 491.29 323.25C491.31 323.24 491.33 323.23 491.35 323.22C491.38 323.21 491.42 323.19 491.46 323.18C491.48 323.17 491.51 323.16 491.53 323.15C491.56 323.13 491.59 323.12 491.63 323.1C491.66 323.09 491.69 323.08 491.72 323.06C491.75 323.05 491.78 323.04 491.81 323.02C491.84 323.01 491.88 322.99 491.92 322.97C491.94 322.96 491.96 322.95 491.98 322.94C492.05 322.91 492.1 322.88 492.16 322.85C496.26 320.78 498.84 316.57 498.84 311.98C498.84 305.31 498.84 251.92 498.84 245.25C498.84 241.37 497 237.72 493.87 235.42C489.41 232.15 467.12 215.77 426.98 186.29L441.42 175.69L572.83 272.23ZM347.63 478.74L292.37 478.74L292.37 406.05L347.63 406.05L347.63 478.74ZM280.19 381.67C273.46 381.67 268 387.13 268 393.86C268 399.52 268 427.81 268 478.74L188.58 478.74L188.58 301.21L320 204.67L451.42 301.21L451.42 478.74L372 478.74C372 427.81 372 399.52 372 393.86C372 387.13 366.54 381.67 359.81 381.67C343.89 381.67 288.15 381.67 280.19 381.67ZM441.42 108.95L595.89 222.43L595.89 258.92C507.53 194.01 458.45 157.95 448.63 150.74C444.68 147.84 439.4 147.61 435.24 150.06C434.88 150.27 434.54 150.5 434.2 150.74C432.35 152.1 423.08 158.91 406.4 171.17L381.56 152.92L441.42 108.95ZM320 137.94L474.47 251.41L474.47 287.9C386.12 223 337.03 186.94 327.22 179.73C326.88 179.48 326.54 179.25 326.18 179.05C322.37 176.8 317.63 176.8 313.82 179.05C313.46 179.26 313.12 179.48 312.78 179.73C302.97 186.94 253.88 223 165.53 287.9L165.53 251.41L320 137.94ZM44.11 222.43L198.58 108.95L258.44 152.92L233.6 171.17C216.92 158.91 207.65 152.11 205.8 150.74C201.51 147.59 195.66 147.59 191.37 150.74C181.55 157.96 132.47 194.01 44.11 258.92L44.11 222.43ZM67.17 272.23L198.58 175.68L213.02 186.29C172.88 215.77 150.59 232.15 146.13 235.42C146.08 235.46 146.03 235.5 145.98 235.53C143.48 237.43 141.82 240.21 141.32 243.27C141.3 243.39 141.28 243.51 141.27 243.63C141.25 243.75 141.24 243.86 141.22 243.98C141.18 244.4 141.16 244.82 141.16 245.25C141.16 251.92 141.16 305.31 141.16 311.98C141.16 316.57 143.74 320.78 147.84 322.85C147.9 322.88 147.97 322.91 148.03 322.95C149.42 323.61 150.88 324 152.37 324.12C155.24 324.36 158.16 323.57 160.56 321.8C160.8 321.62 162.02 320.73 164.21 319.11L164.21 425.86L67.17 425.86L67.17 272.23ZM164.21 450.23L164.21 478.74L32.4 478.74L32.4 450.23L164.21 450.23ZM607.6 531.63L32.4 531.63L32.4 503.11C315.37 503.11 472.57 503.11 504.01 503.11C510.74 503.11 516.2 497.66 516.2 490.93C516.2 484.2 510.74 478.74 504.01 478.74C502.13 478.74 492.73 478.74 475.79 478.74L475.79 450.23L607.6 450.23L607.6 531.63Z" id="c2hZpQqZLS"></path><path d="M320 343.92C297.61 343.92 279.45 325.76 279.45 303.37C279.45 280.98 297.61 262.82 320 262.82C342.39 262.82 360.55 280.98 360.55 303.37C360.55 325.76 342.39 343.92 320 343.92Z" id="fc7iMy6Dr8"></path><path d="M267.27 303.37C267.27 274.3 290.92 250.64 320 250.64C349.08 250.64 372.73 274.3 372.73 303.37C372.73 332.45 349.08 356.11 320 356.11C290.92 356.11 267.27 332.45 267.27 303.37ZM291.64 303.37C291.64 319.01 304.36 331.73 320 331.73C335.64 331.73 348.36 319.01 348.36 303.37C348.36 287.74 335.64 275.01 320 275.01C304.36 275.01 291.64 287.74 291.64 303.37Z" id="apwlDqoPC"></path></defs><g><g><g><use xlink:href="#l35HpZcdEe" opacity="1" fill="#a7dbd8" fill-opacity="1"></use><g><use xlink:href="#l35HpZcdEe" opacity="1" fill-opacity="0" stroke="#000000" stroke-width="1" stroke-opacity="0"></use></g></g><g><use xlink:href="#f1qIijJRp" opacity="1" fill="#000000" fill-opacity="1"></use><g><use xlink:href="#f1qIijJRp" opacity="1" fill-opacity="0" stroke="#000000" stroke-width="1" stroke-opacity="0"></use></g></g><g><use xlink:href="#a9iBBEtdB" opacity="1" fill="#fcc595" fill-opacity="1"></use><g><use xlink:href="#a9iBBEtdB" opacity="1" fill-opacity="0" stroke="#000000" stroke-width="1" stroke-opacity="0"></use></g></g><g><use xlink:href="#a1NnbHrYA" opacity="1" fill="#d38a5a" fill-opacity="1"></use><g><use xlink:href="#a1NnbHrYA" opacity="1" fill-opacity="0" stroke="#000000" stroke-width="1" stroke-opacity="0"></use></g></g><g><use xlink:href="#caP3puS5g" opacity="1" fill="#ff5046" fill-opacity="1"></use><g><use xlink:href="#caP3puS5g" opacity="1" fill-opacity="0" stroke="#000000" stroke-width="1" stroke-opacity="0"></use></g></g><g><use xlink:href="#h6M20LU2R" opacity="1" fill="#db9970" fill-opacity="1"></use><g><use xlink:href="#h6M20LU2R" opacity="1" fill-opacity="0" stroke="#000000" stroke-width="1" stroke-opacity="0"></use></g></g><g><use xlink:href="#bKjCYdmCK" opacity="1" fill="#ff5046" fill-opacity="1"></use><g><use xlink:href="#bKjCYdmCK" opacity="1" fill-opacity="0" stroke="#000000" stroke-width="1" stroke-opacity="0"></use></g></g><g><use xlink:href="#h7DA2ZZVs" opacity="1" fill="#ff5046" fill-opacity="1"></use><g><use xlink:href="#h7DA2ZZVs" opacity="1" fill-opacity="0" stroke="#000000" stroke-width="1" stroke-opacity="0"></use></g></g><g><use xlink:href="#c4GaAFhpqm" opacity="1" fill="#db9970" fill-opacity="1"></use><g><use xlink:href="#c4GaAFhpqm" opacity="1" fill-opacity="0" stroke="#000000" stroke-width="1" stroke-opacity="0"></use></g></g><g><use xlink:href="#c2hZpQqZLS" opacity="1" fill="#000000" fill-opacity="1"></use><g><use xlink:href="#c2hZpQqZLS" opacity="1" fill-opacity="0" stroke="#000000" stroke-width="1" stroke-opacity="0"></use></g></g><g><use xlink:href="#fc7iMy6Dr8" opacity="1" fill="#a7dbd8" fill-opacity="1"></use><g><use xlink:href="#fc7iMy6Dr8" opacity="1" fill-opacity="0" stroke="#000000" stroke-width="1" stroke-opacity="0"></use></g></g><g><use xlink:href="#apwlDqoPC" opacity="1" fill="#000000" fill-opacity="1"></use><g><use xlink:href="#apwlDqoPC" opacity="1" fill-opacity="0" stroke="#000000" stroke-width="1" stroke-opacity="0"></use></g></g></g></g></svg>